<svg width="120" height="120" viewBox="0 0 120 120" fill="none" xmlns="http://www.w3.org/2000/svg">
<rect width="120" height="120" rx="8" fill="#F2F2F2"/>
<path d="M50.5003 53.6667C52.18 53.6667 53.7909 52.9994 54.9787 51.8117C56.1664 50.6239 56.8337 49.013 56.8337 47.3333C56.8337 45.6536 56.1664 44.0427 54.9787 42.855C53.7909 41.6673 52.18 41 50.5003 41C48.8206 41 47.2097 41.6673 46.022 42.855C44.8343 44.0427 44.167 45.6536 44.167 47.3333C44.167 49.013 44.8343 50.6239 46.022 51.8117C47.2097 52.9994 48.8206 53.6667 50.5003 53.6667Z" stroke="#DEDEDE" stroke-width="6" stroke-linecap="round" stroke-linejoin="round"/>
<path d="M63.1663 28.333H50.4997C34.6663 28.333 28.333 34.6663 28.333 50.4997V69.4997C28.333 85.333 34.6663 91.6663 50.4997 91.6663H69.4997C85.333 91.6663 91.6663 85.333 91.6663 69.4997V53.6663" stroke="#DEDEDE" stroke-width="6" stroke-linecap="round" stroke-linejoin="round"/>
<path d="M71.875 37.8333H89.2917M80.5833 46.5417V29.125" stroke="#DEDEDE" stroke-width="6" stroke-linecap="round"/>
<path d="M30.4551 82.0084L46.0667 71.5268C48.5684 69.8484 52.1784 70.0384 54.4267 71.9701L55.4717 72.8884C57.9417 75.0101 61.9317 75.0101 64.4017 72.8884L77.5751 61.5834C80.0451 59.4618 84.0351 59.4618 86.5051 61.5834L91.6667 66.0168" stroke="#DEDEDE" stroke-width="6" stroke-linecap="round" stroke-linejoin="round"/>
</svg>
